<?xml version="1.0" standalone="no"?>
<!DOCTYPE svg PUBLIC "-//W3C//DTD SVG 20010904//EN"
 "http://www.w3.org/TR/2001/REC-SVG-20010904/DTD/svg10.dtd">
<svg version="1.0" xmlns="http://www.w3.org/2000/svg"
 width="500.000000pt" height="500.000000pt" viewBox="0 0 500.000000 500.000000"
 preserveAspectRatio="xMidYMid meet">
<metadata>
Created by potrace 1.15, written by Peter Selinger 2001-2017
</metadata>
<g transform="translate(0.000000,500.000000) scale(0.100000,-0.100000)"
fill="#000000" stroke="none">
<path d="M3854 2930 c-49 -19 -161 -224 -219 -400 -20 -63 -48 -133 -61 -156
-32 -57 -102 -144 -116 -144 -16 0 -1 116 23 170 24 54 18 90 -14 90 -12 0
-32 -7 -43 -14 -19 -14 -22 -13 -37 20 -13 26 -23 34 -43 34 -34 0 -89 -42
-110 -83 -29 -56 -97 -117 -133 -117 -12 0 10 67 33 102 10 15 12 28 6 38 -20
32 -90 -65 -90 -124 0 -13 -18 -54 -40 -91 -48 -84 -56 -93 -71 -78 -14 14 3
119 32 207 22 65 16 83 -23 73 -16 -4 -42 -34 -76 -86 -48 -74 -102 -131 -123
-131 -25 0 5 120 56 217 19 38 13 53 -19 53 -21 0 -55 -35 -68 -71 -6 -15
-178 -143 -178 -132 0 3 15 32 33 65 l32 59 -24 20 c-28 23 -42 21 -56 -9 -5
-12 -17 -22 -25 -22 -8 0 -51 -27 -95 -59 -44 -33 -82 -58 -84 -56 -2 2 11 28
28 58 37 66 39 84 6 99 -27 12 -55 -2 -55 -28 0 -8 -6 -14 -12 -14 -7 0 -31
-28 -53 -62 -47 -73 -93 -128 -107 -128 -15 0 0 106 23 167 12 28 19 60 17 70
-4 24 -45 29 -69 7 -10 -9 -20 -15 -22 -13 -1 2 -9 18 -17 34 -33 63 -113 32
-161 -61 -32 -64 -163 -240 -185 -248 -9 -4 -19 -4 -21 -2 -3 2 12 44 32 93
51 120 51 135 0 145 -69 14 -69 14 -45 53 l21 34 -26 7 c-35 9 -68 -23 -68
-65 0 -40 19 -61 54 -61 16 0 29 -1 29 -3 0 -1 -16 -38 -35 -82 -19 -44 -35
-91 -35 -105 0 -35 27 -70 53 -70 32 0 91 46 139 108 39 51 43 53 46 31 5 -32
30 -59 57 -59 24 0 77 53 118 118 31 48 41 54 27 16 -15 -39 -12 -127 6 -152
10 -14 26 -22 44 -22 33 0 82 52 138 148 19 31 32 50 29 42 -41 -131 -41 -132
-98 -182 -81 -70 -170 -198 -176 -252 -5 -38 -2 -45 22 -64 82 -65 147 6 231
254 20 60 44 117 53 128 26 30 182 149 188 143 3 -3 -6 -40 -20 -81 -23 -68
-34 -84 -99 -148 -125 -123 -184 -234 -150 -284 25 -38 89 -44 123 -11 32 29
90 149 129 267 17 52 39 103 48 114 28 31 153 128 158 123 3 -3 0 -22 -6 -44
-15 -49 -10 -103 11 -116 29 -18 73 3 133 66 33 34 56 53 52 42 -4 -10 -9 -47
-12 -82 -4 -53 -2 -65 16 -83 11 -11 31 -20 45 -20 35 0 109 71 132 126 16 39
22 44 49 44 17 0 43 9 58 21 l26 20 0 -46 c0 -125 80 -113 165 23 14 24 28 42
30 40 2 -2 -1 -24 -6 -49 -7 -33 -6 -56 3 -84 26 -78 77 -73 141 13 l42 58 0
-92 c0 -84 2 -95 24 -118 43 -46 94 -28 165 60 56 68 153 223 162 258 9 37
-13 33 -34 -5 -42 -76 -152 -237 -180 -263 -47 -43 -62 -31 -62 51 0 84 34
207 70 253 52 67 160 238 190 302 35 74 40 146 13 170 -28 24 -37 26 -59 18z
m-1679 -867 c-45 -114 -89 -186 -113 -181 -28 5 -27 62 1 111 26 44 137 171
143 164 2 -2 -12 -44 -31 -94z m231 34 c-50 -134 -99 -217 -127 -217 -16 0
-27 43 -18 72 4 16 18 43 30 60 23 32 129 148 135 148 2 0 -7 -29 -20 -63z"/>
<path d="M1374 2818 c-39 -61 -116 -231 -143 -313 -13 -38 -30 -86 -38 -105
-12 -29 -53 -198 -53 -221 0 -19 32 -38 52 -30 16 6 29 32 55 114 33 104 35
107 63 107 40 0 70 13 149 64 124 81 210 203 219 310 3 41 0 56 -18 79 -36 45
-70 37 -134 -30 -68 -72 -157 -187 -180 -231 -10 -19 -20 -32 -22 -29 -7 6 80
218 102 253 14 20 15 30 6 49 -16 35 -28 31 -58 -17z m219 -50 c17 -46 -67
-202 -149 -278 -39 -35 -123 -84 -131 -76 -9 8 83 157 150 244 91 117 118 140
130 110z"/>
</g>
</svg>
